<svg height="512" viewBox="0 0 128 128" width="512" xmlns="http://www.w3.org/2000/svg"><g><path d="m111 64c0 4.029-4.462 7.418-5.455 11.134-1.028 3.845 1.112 9-.836 12.371-1.976 3.414-7.532 4.13-10.3 6.9s-3.486 8.328-6.9 10.3c-3.366 1.948-8.526-.192-12.37.836-3.721.997-7.11 5.459-11.139 5.459s-7.418-4.462-11.134-5.455c-3.845-1.028-9.005 1.112-12.371-.836-3.415-1.976-4.13-7.532-6.9-10.3s-8.328-3.486-10.3-6.9c-1.948-3.366.191-8.525-.836-12.37-.997-3.721-5.459-7.11-5.459-11.139s4.462-7.418 5.455-11.134c1.028-3.845-1.112-9.005.836-12.371 1.976-3.414 7.532-4.13 10.3-6.9s3.486-8.328 6.9-10.3c3.366-1.948 8.525.192 12.37-.836 3.721-.997 7.11-5.459 11.139-5.459s7.418 4.462 11.134 5.455c3.845 1.028 9-1.112 12.371.836 3.414 1.976 4.13 7.532 6.9 10.3s8.328 3.486 10.3 6.9c1.948 3.366-.192 8.525.836 12.37.997 3.721 5.459 7.11 5.459 11.139z" fill="#f5c464"/><circle cx="64" cy="64" fill="#f26e53" r="33.169"/><path d="m78.8 63.135a4.693 4.693 0 0 0 -4.7-4.692h-4.116a9.993 9.993 0 0 0 2.126-2.515c1.387-1.953 2.079-5.656.83-7.643a2.628 2.628 0 0 0 -4.752.555c-2.322 6.191-10.173 9.6-10.173 9.6v21.234h11.6a9.18 9.18 0 0 0 9.18-9.18z" fill="#fff7ed"/><path d="m46.53 55.916h11.485v25.065h-11.485z" fill="#f5c464"/></g></svg>