<svg id="Capa_1" enable-background="new 0 0 494.82 494.82" height="512" viewBox="0 0 494.82 494.82" width="512" xmlns="http://www.w3.org/2000/svg"><g><g id="XMLID_185_"><g><path d="m494.82 231.84v31.14c0 6.31-5.12 11.43-11.43 11.43h-22.04c-.68 0-1.25.51-1.33 1.19-4.4 38.54-19.02 73.97-41.1 103.5-.41.54-.35 1.29.12 1.76l14.33 14.32c4.46 4.47 4.46 11.7 0 16.17l-22.03 22.02c-4.46 4.46-11.69 4.46-16.16 0l-13.84-13.84c-.48-.49-1.24-.53-1.78-.11-29.42 23.13-65.05 38.72-103.98 43.84-.67.09-1.17.65-1.17 1.33v18.8c0 6.31-5.12 11.43-11.43 11.43h-31.14c-6.31 0-11.43-5.12-11.43-11.43v-18.8c0-.68-.5-1.24-1.17-1.33-38.93-5.12-74.56-20.71-103.98-43.84-.54-.42-1.3-.38-1.78.11l-13.84 13.84c-4.47 4.46-11.7 4.46-16.16 0l-22.03-22.02c-4.46-4.47-4.46-11.7 0-16.17l14.33-14.32c.47-.47.53-1.22.12-1.76-22.08-29.53-36.7-64.96-41.1-103.5-.08-.68-.65-1.19-1.33-1.19h-22.04c-6.31 0-11.43-5.12-11.43-11.43v-31.14c0-6.31 5.12-11.43 11.43-11.43h23.01c.66 0 1.23-.49 1.33-1.15 5.59-37.5 20.9-71.83 43.31-100.32.42-.54.38-1.3-.11-1.78l-17.52-17.52c-4.46-4.46-4.46-11.7 0-16.16l22.03-22.02c4.46-4.47 11.69-4.47 16.16 0l18 18c.48.47 1.22.53 1.76.13 28.59-21.39 62.72-35.79 99.84-40.67.67-.09 1.17-.66 1.17-1.33v-26.16c0-6.31 5.12-11.43 11.43-11.43h31.14c6.31 0 11.43 5.12 11.43 11.43v26.16c0 .67.5 1.24 1.17 1.33 37.12 4.88 71.25 19.28 99.84 40.67.54.4 1.28.34 1.76-.13l18-18c4.47-4.47 11.7-4.47 16.16 0l22.03 22.02c4.46 4.46 4.46 11.7 0 16.16l-17.52 17.52c-.49.48-.53 1.24-.11 1.78 22.41 28.49 37.72 62.82 43.31 100.32.1.66.67 1.15 1.33 1.15h23.01c6.31 0 11.43 5.12 11.43 11.43zm-78.06 19.25c0-93.53-75.82-169.35-169.35-169.35s-169.35 75.82-169.35 169.35 75.82 169.35 169.35 169.35 169.35-75.82 169.35-169.35z" fill="#ded4cf"/></g></g><path d="m361.423 271.402c.264 62.917-50.526 114.136-113.443 114.4s-114.136-50.526-114.4-113.443c-.208-49.625 70.353-123.592 100.177-152.629 7.285-7.093 18.866-7.142 26.211-.11 30.066 28.786 101.247 102.157 101.455 151.782z" fill="#b3e5ee"/><path d="m188.915 266.384c-.175-41.553 49.267-100.168 82.867-135.186-4.365-4.376-8.363-8.274-11.815-11.579-7.345-7.032-18.925-6.983-26.211.11-29.823 29.038-100.385 103.004-100.177 152.629.264 62.917 51.483 113.707 114.4 113.443 13.748-.058 26.916-2.549 39.1-7.062-55.26-7.647-97.922-54.949-98.164-112.355z" fill="#86d7e5"/><path d="m250.919 183.128-52.57 90.153c-1.059 1.816.251 4.097 2.354 4.097h38.541c1.505 0 2.724 1.22 2.724 2.724v57.941c0 2.871 3.867 3.789 5.158 1.225l45.11-89.605c.912-1.812-.405-3.95-2.433-3.95h-30.566c-1.495 0-2.711-1.205-2.724-2.7l-.516-58.536c-.024-2.769-3.683-3.741-5.078-1.349z" fill="#edf9fa"/></g></svg>