<svg id="Capa_1" enable-background="new 0 0 496.642 496.642" height="512" viewBox="0 0 496.642 496.642" width="512" xmlns="http://www.w3.org/2000/svg"><g><g id="XMLID_187_"><path d="m366.384 138.902-77.73-50.69-.19-59.49h-88.35v59.49l-77.73 50.69c-9.98 6.51-18 15.28-23.59 25.39l10.039 33.702h251.764l20.437-46.392h.01c-4.23-4.82-9.15-9.11-14.66-12.7z" fill="#edf9fa"/></g><path d="m288.639 83.353-.127-39.733-.048-14.899h-51.58-36.77v59.49l-77.73 50.69c-9.98 6.51-18 15.28-23.59 25.39l10.039 33.702h25.265v-1.39c0-11.079 3.16-21.771 8.95-31.17 5.59-9.084 13.61-16.964 23.59-22.814l74.521-43.666c1.988-1.165 3.209-3.296 3.209-5.6v-1.683c0-4.594 3.724-8.318 8.318-8.318h35.953z" fill="#e1f5f8"/><path d="m398.924 198.982v263.58c0 18.82-15.26 34.08-34.08 34.08h-240.92c-18.82 0-34.08-15.26-34.08-34.08v-263.58c0-12.33 3.16-24.23 8.95-34.69l22.37-5.53c38.82-9.6 79.34-9.97 118.33-1.08 18.72 4.27 37.81 6.4 56.9 6.4 18.38 0 36.77-1.98 54.83-5.94l29.81-6.54h.01c11.38 12.93 17.88 29.72 17.88 47.38z" fill="#b3e5ee"/><g><path d="m138.545 274.563c1.741-1.252 3.875-1.989 6.184-1.989h254.195v-73.592c0-.559-.025-1.115-.039-1.672h-255.734c-4.795 0-8.404-4.387-7.455-9.086 1.481-7.33 3.967-17.294 7.352-22.788 2.746-4.462 6.103-8.658 9.965-12.441-10.69 1.245-21.344 3.17-31.849 5.768l-22.37 5.53c-5.79 10.46-8.95 22.36-8.95 34.69v263.58c0 18.822 15.258 34.08 34.08 34.08h240.92c18.317 0 33.256-14.457 34.042-32.58h-230.707c-15.221 0-28.104-8.971-32.478-21.347-.674-1.907.802-3.898 2.824-3.898h260.399v-75.265h-253.887c-3.045 0-4.142-4.074-1.481-5.555 2.633-1.465 5.664-2.301 8.892-2.301h246.476v-75.267h-258.479c-3.14 0-4.45-4.034-1.9-5.867z" fill="#86d7e5"/><g fill="#b3e5ee"><path d="m403.197 257.574h-309.752c-7.022 0-12.715-5.693-12.715-12.715v-19.835c0-7.022 5.693-12.715 12.715-12.715h309.751c7.022 0 12.715 5.693 12.715 12.715v19.835c0 7.022-5.692 12.715-12.714 12.715z"/><path d="m403.197 340.695h-309.752c-7.022 0-12.715-5.693-12.715-12.715v-19.835c0-7.022 5.693-12.715 12.715-12.715h309.751c7.022 0 12.715 5.693 12.715 12.715v19.835c0 7.022-5.692 12.715-12.714 12.715z"/><path d="m403.197 423.816h-309.752c-7.022 0-12.715-5.693-12.715-12.715v-19.835c0-7.022 5.693-12.715 12.715-12.715h309.751c7.022 0 12.715 5.693 12.715 12.715v19.835c0 7.022-5.692 12.715-12.714 12.715z"/><path d="m289.993 68.353h-91.218c-8.326 0-15.075-6.749-15.075-15.075v-38.203c0-8.326 6.749-15.075 15.075-15.075h91.218c8.326 0 15.075 6.749 15.075 15.075v38.202c0 8.327-6.749 15.076-15.075 15.076z"/></g><g fill="#86d7e5"><path d="m236.884 0h15v68.353h-15z"/><path d="m206.542 0h15v68.353h-15z"/><path d="m267.226 0h15v68.353h-15z"/></g></g></g></svg>